<svg xmlns="http://www.w3.org/2000/svg" viewBox="0 0 640 460" width="640" height="460" role="img" aria-label="Plan of a showground laid out for a harvest festival">
  <g fill="none" stroke="#8a8a8a" stroke-width="2" stroke-linejoin="round">
    <rect x="40" y="30" width="560" height="390" rx="6"/>
    <ellipse cx="330" cy="215" rx="130" ry="105"/>
    <path d="M300 420 V 330"/>
    <path d="M540 40 C 555 140, 520 240, 545 350 C 555 390, 540 405, 545 415"/>
    <rect x="70" y="160" width="70" height="110" rx="3"/>
    <rect x="255" y="345" width="100" height="45" rx="3"/>
    <rect x="120" y="330" width="110" height="55" rx="3"/>
    <rect x="390" y="330" width="120" height="55" rx="3"/>
    <rect x="150" y="60" width="120" height="55" rx="3"/>
    <rect x="390" y="60" width="120" height="55" rx="3"/>
    <rect x="465" y="180" width="70" height="60" rx="3"/>
    <path d="M270 420 h 60" stroke-width="4"/>
    <path d="M300 448 v -22 m -8 10 l 8 -10 l 8 10" stroke-width="2"/>
  </g>
  <g fill="#8a8a8a" font-family="system-ui, -apple-system, Segoe UI, sans-serif" font-size="14" font-weight="600" text-anchor="middle">
    <text x="330" y="220">THE OVAL</text>
    <text x="105" y="212" transform="rotate(-90 105 212)">GRANDSTAND</text>
    <text x="305" y="364">INFORMATION</text>
    <text x="305" y="380">TENT</text>
    <text x="578" y="230" transform="rotate(-90 578 230)">THE RIVER</text>
    <text x="300" y="443" font-size="16">MAIN GATE</text>
    <g font-size="22" font-weight="700">
      <text x="175" y="364">11</text>
      <text x="450" y="364">12</text>
      <text x="210" y="94">13</text>
      <text x="450" y="94">14</text>
      <text x="500" y="216">15</text>
    </g>
  </g>
</svg>
